# xmcd
#
# Track frame offsets:
#       150
#       14995
#       30605
#       48095
#       60777
#       74955
#       89342
#       101965
#       115097
#       129420
#       145737
#       160895
#       176537
#       194310
#       211330
#       224595
#
# Disc length: 3187 seconds
#
# Revision: 0
# Processed by: cddbd v1.5.1PL0 Copyright (c) Steve Scherf et al.
# Submitted via: WhereIsIt 3.26
#
DISCID=ee0c7110
DTITLE=김혜연 - Best
DYEAR=1900
DGENRE=
TTITLE0=더 늦기전에
TTITLE1=예쁜 여우
TTITLE2=나의 아버지
TTITLE3=바보같은 여자
TTITLE4=간큰 남자
TTITLE5=서울 대전 대구 부산
TTITLE6=서울, 평양 반나절
TTITLE7=백두산 천지
TTITLE8=서울 공화국
TTITLE9=다이어트
TTITLE10=해변을 걸어요
TTITLE11=이별은 아니야
TTITLE12=불꽃놀이
TTITLE13=목포와 뱃부
TTITLE14=봐봐봐
TTITLE15=본능
EXTD=
EXTT0=
EXTT1=
EXTT2=
EXTT3=
EXTT4=
EXTT5=
EXTT6=
EXTT7=
EXTT8=
EXTT9=
EXTT10=
EXTT11=
EXTT12=
EXTT13=
EXTT14=
EXTT15=
PLAYORDER=
